<?xml version="1.0" encoding="UTF-8"?>
<svg version="1.1" viewBox="0 0 2048 1211" width="169" height="100" xmlns="http://www.w3.org/2000/svg">
<path transform="translate(1027,72)" d="m0 0h12l9 2 8 6 6 5 11 14 15 28 9 19 46 92 10 21 9 16 8 16 7 16 3 6 2 1h63l13 2 3 5 1 3 2 1 50 1h16l12 2 3 3 2 5 2 1 54 1 12 4 9 6 10 4 5 4 4 7 1 7 9 7-1 7-6 5-6 17-11 12-5 6-8 7-4 3-12 2-11 11-7 6-6 7-5 4-7 8-25 25h-2l-2 4-7 7-5 4-7 8-25 25-8 7-19 19-4 6-1 6 2 14 4 6 5 7 2 12v27l1 11 9 9 1 3 1 47 1 14 4 4 5 4 1 3 1 13v34l1 13 2 5 6 4 4 7-1 9-7 8-5 4-7 8-9 9-5 2-20-1-6-4-6-5-1-2h-7l-8-3-18-18-5-3-9-1-14-10v-2h-8l-11-6-6-5-8-2-15-8-2-2-9-3-16-9-12-5-12-7-12-5-10-6-15-6-6-4-1-2h-5l-5 6-16 6-32 16-19 9-16 8-21 11-32 16-25 12-15 8-16 8-19 9-10 7-5 2-7 1-6-4-12-13-14-14-1-3v-8l3-11 8-16 1-4 1-40 2-14 6-10 2-4 2-19 1-17 1-10 6-10 2-3 2-19 1-38 2-8 8-7 2-4v-6l-7-9-12-13-58-58-8-7-6-5-11-3-11-9-13-13-5-4-7-8-9-8v-2l-3-1v-2l-4-2-8-8-7-8-8-8-5-8-4-11-6-8-3-8 3-9 25-25 5-2 23-1 51-1 2-4 5-6 75-2h3l2-4 4-6 62-2 8-4 5-6 6-5 10-15 14-27 8-16 11-23 7-14 6-11 7-16 9-16 5-12 5-8 8-18 5-8 7-16 5-7 4-13 5-5z" fill="#539A91"/>
<path transform="translate(336,676)" d="m0 0 8 1 7 5 7 10 8 16 9 17 8 16 9 19 8 15 4 8 11 14 7 6 5 5 4 2 52 1h11l11 2 7 7 17 2 21 2 6 3 2 3v14l-2 9-11 12-7 8-14 14-8 7-11 2-9 7-13 12-18 18h-2l-2 5-1 34 1 14 1 3 8 7 1 5 1 49 1 12 4 2 4 5 4 10v8l-2 1-11 1h-26l-7-2-10-9-10-1-6-4-8-6-8-2-6-3-10-9-4-3v-2l-4-2-4-4-9-2-6-3-10-8-6-1-6 3-8 7-11 3-9 6-13 11-7 5-9 3-15 9-11 4-12 7-9 2-15 1h-14l-5-3-1-2v-10l3-14 7-12 1-3 1-11v-26l1-15 3-10 6-9 3-15v-17l-5-9-7-7-4-5-14-11-11-3-8-6-7-6v-2l-4-2-14-14-7-8-11-11-5-8-1-5v-12l3-7 5-3 14-1 10 1 13-2 5-5 3-4 76-3 6-4 12-12 10-15 8-17 8-16 8-14 7-16 5-8 4-11 4-6 11-12z" fill="#539A91"/>
<path transform="translate(1729,676)" d="m0 0 8 1 6 4 7 8 8 16 12 23 27 54 10 13 13 13 5 2 62 1 11 2 8 7 37 4 9 3 2 2-1 5-6 10-15 16-77 77-1 2v46l3 5 6 5 2 7v40l1 17 10 10 1 5-7 6-10 8-2 1h-21l-5-3-8-7-13-3-13-9-10-3-11-7-5-3-6-1-9-6-17-17-9-2-9 6-5 4-12 4-11 8-13 11-16 7-9 6-14 5-11 7-9 2-15 1h-15l-5-4v-13l2-10 5-10 3-5 1-7 1-26v-10l1-14 4-9 5-8 3-19-1-7v-7l-4-7h-8l-8-4-12-11-53-53-7-8-4-6-1-3v-17l4-7 3-1 16-1 9 1 9-1 7-2 2-5 2-3 57-2 20-1 8-6 8-8 11-16 5-11 8-15 21-42 3-5 4-11 6-8 7-8z" fill="#529A91"/>
<path transform="translate(1021,391)" d="m0 0h32l58 1 6 2 1 6v28l-5 4-98 1-10 1-1 1-4 39-1 19 17-12 12-5 12-2h24l18 4 16 8 10 8 8 8 10 15 4 11 2 14v23l-4 16-6 12-9 14-7 8-10 7-14 8-16 5-18 3h-24l-20-4-14-5-14-8-10-9-8-9-6-12-4-12v-10l3-5 2-1 28-1 7 2 6 4 11 14 9 8 9 4 9 2h11l11-3 12-6 9-8 4-6 2-7 1-13-2-13-6-11-10-10-12-6-4-1h-19l-9 2-13 8-8 8-14 5h-21l-9-3-3-3v-17l4-38 4-50 2-27 3-5z" fill="#FEFEFE"/>
<path transform="translate(1e3 743)" d="m0 0 4 2-4 5-6 1v2l-18 10-7 3-9 4-8 4-4 1-2 3-3 1 1 4-3 5-17 9-32 16-25 12-15 8-16 8-15 7h-3l-1-6v-3h3l1-6-2-1 5-6-1-3 2-5h6l4-4 6-4 10-5h2v-2l8-4 4-6 5-3 7-1 3-1 5-5 9-3 1-1 15-3v-2l5-3 7-3 13-2 3-3 9-3 4-1 7-2 3-3 12-3 5-1 12-3 4-3z" fill="#3D9185"/>
<path transform="translate(508,817)" d="m0 0 4 3 17 2 14 1 5 2 3 3v11l-8 8-10 3-7 1-2-4-5-3-3-3-2-8-6-13z" fill="#3D9185"/>
<path transform="translate(1418,345)" d="m0 0 12 5 7 4 6 9 1 7 5 4v2h-3l-2 6-4 5-6 2-3-4v-18l-4-8v-2l-6-1-3-2-1-4z" fill="#3D9185"/>
<path transform="translate(719,481)" d="m0 0 7 2 6 4 3 3 5 3 1 3 3 1 2 5 3 1 7 8v3l3 1v2h2l1 4 5 4v2h4l3 4 3 3v3h2v2l3 1 3 3v2h2l5 6-1 3-56-56-8-7-7-6-3-2z" fill="#3D9185"/>
<path transform="translate(1294,757)" d="m0 0h2v34l1 13 2 5 3 3h-3l-2 5-4 3-4-1-2-4 3-9 1-19 2-15z" fill="#3F9286"/>
<path transform="translate(1400,433)" d="m0 0h5l-2 2-5 3-9 9-7 6-6 7-5 4-7 8-25 25h-2l-2 4-7 7-5 4-7 8-8 8h-2v-2h2l2-4 83-83 4-5z" fill="#429387"/>
<path transform="translate(1533,822)" d="m0 0 13 1 9-1h5v2l-10 4-6 1-9 4-5 3-4-1-4-8-2-3 1-1z" fill="#3E9185"/>
<path transform="translate(165,821)" d="m0 0h2l-1 3-9 3-7 3-7 2-1 1h-8l-3-6-4-3 1-1 14-1 10 1z" fill="#3E9185"/>
<path transform="translate(424,807)" d="m0 0 7 3 52 1 4 3-9 1-12 1-23-1-12-1-7-5z" fill="#3F9286"/>
<path transform="translate(1256,316)" d="m0 0 4 2 2 6 2 1 50 1h16v2l-5 2-51-1-18-1 1-3h2l-2-7z" fill="#3F9186"/>
<path transform="translate(466,1065)" d="m0 0 4 2 1 4-2 10 5 7-7 1-5-1 3-3-2-1v-2l-4-2v-11l3-3z" fill="#3D9185"/>
<path transform="translate(1343,330)" d="m0 0 2 1 2 5 2 1 50 1 2 2-7 2h-26l-8-1-19-1 2-4z" fill="#3E9185"/>
<path transform="translate(1818,808)" d="m0 0 7 2 51 1 8 1-2 2h-55l-7-3-2-1z" fill="#409286"/>
<path transform="translate(1645,808)" d="m0 0 2 1-4 3-9 2-17 1-35-2v-1l5-1 40-1 16-1z" fill="#3F9286"/>
<path transform="translate(809,323)" d="m0 0 2 1-2 4-4 2h-26l-21-2 2-2 49-1z" fill="#3D9185"/>
<path transform="translate(886,308)" d="m0 0v3l-5 5-3 1-20 1-28-1h-9v-2l56-2 8-4z" fill="#409286"/>
<path transform="translate(1902,817)" d="m0 0 4 3 34 4 1 2-1 2-4 1-8-1-4 1-5 1-4-5-10-2-3-2z" fill="#3E9185"/>
<path transform="translate(724,336)" d="m0 0 1 2-3 3-4 1h-23l-4-1-20-1 2-2 49-1z" fill="#3D9185"/>
<path transform="translate(1027,72)" d="m0 0h12l4 2v5h-2l-1 2-5-3h-8l-4 2-6-1 1-5h-5v-1z" fill="#3E9186"/>
<path transform="translate(253,807)" d="m0 0 1 2-8 4-19 1-37-1 4-2 55-2z" fill="#409287"/>
<path transform="translate(800,603)" d="m0 0h2v48l-2 10-6 7-1-2 4-6 2-19z" fill="#3E9185"/>
<path transform="translate(1192,314)" d="m0 0h53v2l-5 2-23-1-26-1z" fill="#409287"/>
<path transform="translate(458,941)" d="m0 0 2 3v28l1 14 1 3 2 1v2l-4-1-3-7v-20z" fill="#3F9186"/>
<path transform="translate(228,1069)" d="m0 0h7l4 3-2 5-7 1-6-2-1-5z" fill="#3D9185"/>
<path transform="translate(1623,1069)" d="m0 0 7 1 2 1v5l-2 2h-6v-2h-7l-2-2h2v-3z" fill="#3D9185"/>
<path transform="translate(1282,686)" d="m0 0h1l1 33 1 14 4 5h-6l-2-6v-21z" fill="#3E9185"/>
<path transform="translate(1851,942)" d="m0 0 2 2 1 6v35l3 5v2l-5-2-1-4-1-21 1-1z" fill="#3E9186"/>
<path transform="translate(789,682)" d="m0 0h1v27l-2 11-5 5 3-12 2-30z" fill="#3F9186"/>
<path transform="translate(1270,622)" d="m0 0h2v27l1 11 3 5-5-1-2-6v-20z" fill="#409286"/>
<path transform="translate(210,1081)" d="m0 0h11v4 3l-8 1h-10l1-2 4-1z" fill="#3D9185"/>
<path transform="translate(776,742)" d="m0 0h1l1 26-1 15-2 2v-38z" fill="#3F9186"/>
<path transform="translate(1611,1081)" d="m0 0 4 2-3 1 4 3-1 1-8 1h-10l1-2 4-2 1-3z" fill="#3E9185"/>
<path transform="translate(1e3 85)" d="m0 0 2 4-7 11-4 7-3 8-8 14-2 1 2-6 6-10 7-16 5-7z" fill="#449489"/>
<path transform="translate(1855,1068)" d="m0 0 7 1 4 7-4 2-8-4v-5z" fill="#3D9185"/>
<path transform="translate(1258,577)" d="m0 0 1 3 1 13 3 8v3l-5-5-2-5v-14z" fill="#3D9185"/>
<path transform="translate(1600,997)" d="m0 0h1l1 20-1 18-2 4v-35z" fill="#409287"/>
<path transform="translate(1612,946)" d="m0 0h1l1 6v11l-3 12-5 7-2-1 5-8 3-19-1-7z" fill="#3F9186"/>
<path transform="translate(206,999)" d="m0 0h1l1 20v10l-1 9-2 1v-31z" fill="#3E9185"/>
<path transform="translate(1202,816)" d="m0 0h2v2l3 1 3 6-1 2-5-3-9-1-3-3 10 2-1-3z" fill="#3F9286"/>
<path transform="translate(1174,303)" d="m0 0 2 1 4 9 6 2v1h-6l-6-4v-3l-3-1 1-3h2z" fill="#3D9185"/>
<path transform="translate(458,973)" d="m0 0h2l1 13 1 3 2 1v2l-4-1-3-7v-10z" fill="#3D9185"/>
<path transform="translate(557,831)" d="m0 0h1v13l-1 5-2-1-1-8z" fill="#3D9185"/>
<path transform="translate(1428,350)" d="m0 0 6 2 5 4 2 4-2 1-5-3v-2l-4-2v-2h-2z" fill="#539A91"/>
<path transform="translate(397,772)" d="m0 0 3 3 4 8v3l-8-7-1-5z" fill="#3F9186"/>
<path transform="translate(1012,73)" d="m0 0 3 1-1 6-1 2-5-1-1-3z" fill="#FEFEFE"/>
<path transform="translate(1863,1081)" d="m0 0h3l-2 4-6 4h-17l1-2h15l4-1z" fill="#3D9185"/>
<path transform="translate(1749,1031)" d="m0 0h2v2l4 2-1 3-2 1 3 5h-2l-6-8h2z" fill="#3D9185"/>
<path transform="translate(1731,1025)" d="m0 0h9l4 6-1 2-5-4-7-1-5 1z" fill="#3E9185"/>
<path transform="translate(934,787)" d="m0 0h5l-1 3-12 6-2-1 3-4z" fill="#539A91"/>
<path transform="translate(993,114)" d="m0 0 1 2-8 16-3 3 1-6z" fill="#FEFEFE"/>
<path transform="translate(207,1071)" d="m0 0h5l1 5-4 4-3-6z" fill="#3D9185"/>
<path transform="translate(1863,1047)" d="m0 0h2l1 12 5 5 1 2-5-1-3-3-1-7z" fill="#3E9185"/>
<path transform="translate(340,1025)" d="m0 0 7 2 4 6-10-5-6 1-4 1 4-4z" fill="#3E9185"/>
<path transform="translate(219,956)" d="m0 0h1v9l-4 12-2 1 4-19z" fill="#3D9185"/>
<path transform="translate(1159,280)" d="m0 0h5l4 8-1 2-4-4v-2h-4z" fill="#3E9185"/>
<path transform="translate(366,1036)" d="m0 0 3 1 2 4 5 5 1 2-4-2-4-4-5-1 2-1-1-3z" fill="#3F9286"/>
<path transform="translate(968,164)" d="m0 0 1 2-8 15-2 1v-6l5-5z" fill="#E5EFEE"/>
<path transform="translate(1e3 93)" d="m0 0 1 2-9 16-1-4 6-10z" fill="#FEFEFE"/>
<path transform="translate(954,192)" d="m0 0 1 2-6 11-3 3 1-8 5-5z" fill="#DAE9E7"/>
<path transform="translate(1e3 85)" d="m0 0 2 4-7 11-3 3 1-5 5-7z" fill="#429387"/>
<path transform="translate(1254,315)" d="m0 0 4 3v5h-4l-1-1z" fill="#FEFEFE"/>
<path transform="translate(980,140)" d="m0 0 1 2-9 17-1-4z" fill="#FEFEFE"/>
<path transform="translate(184,903)" d="m0 0 4 1 3 5v2l-6-2-1-1z" fill="#3F9286"/>
<path transform="translate(1178,806)" d="m0 0 5 1 2 8-4-2-4-5z" fill="#3E9185"/>
<path transform="translate(1514,835)" d="m0 0 3 4-1 11-2-2z" fill="#3D9185"/>
<path transform="translate(1167,291)" d="m0 0 4 2 2 10-3-3-3-6z" fill="#EBF3F2"/>
<path transform="translate(1791,773)" d="m0 0 3 3 4 7-1 2-6-6z" fill="#419287"/>
<path transform="translate(940,219)" d="m0 0 1 2-6 10-1-4 2-4z" fill="#D5E6E4"/>
</svg>
